<svg width="157" height="43" viewBox="0 0 157 43" fill="none" xmlns="http://www.w3.org/2000/svg">
<path d="M61.5662 22.3313C60.6249 21.8853 59.6494 21.5174 58.6495 21.2311C57.5914 20.9304 56.5826 20.4738 55.6553 19.8761C55.3685 19.6552 55.1369 19.3691 54.9791 19.0409C54.8212 18.7127 54.7416 18.3516 54.7465 17.9865C54.7514 17.6214 54.8408 17.2626 55.0075 16.9389C55.1742 16.6152 55.4134 16.3357 55.7061 16.1228C56.3878 15.635 57.2941 15.3857 58.4009 15.3857C59.1382 15.3871 59.8669 15.5459 60.5396 15.8518C61.1737 16.1236 61.7387 16.5378 62.1918 17.0632C62.2846 17.1586 62.3953 17.2342 62.5175 17.2854C62.6397 17.3366 62.7707 17.3624 62.9029 17.3613C63.0567 17.3604 63.2088 17.3289 63.3505 17.2684C63.4923 17.208 63.6209 17.1198 63.729 17.009C63.8447 16.908 63.9381 16.7833 64.0031 16.6433C64.068 16.5032 64.1031 16.3508 64.106 16.196C64.0752 15.8177 63.9087 15.4639 63.6381 15.2015C63.0249 14.4851 62.2406 13.9402 61.3603 13.6189C60.4118 13.254 59.4047 13.0703 58.3902 13.0769C57.3268 13.0581 56.2718 13.2716 55.297 13.7028C54.44 14.0791 53.7005 14.6853 53.1583 15.4562C52.6397 16.2168 52.3678 17.1224 52.3803 18.0469C52.3477 18.9959 52.6075 19.9317 53.1235 20.7243C53.6076 21.4229 54.2492 21.9943 54.9949 22.3909C55.8644 22.8407 56.775 23.2037 57.7138 23.4749C58.5126 23.7259 59.2948 24.0282 60.0557 24.38C60.5841 24.6232 61.0532 24.9813 61.4299 25.4288C61.7657 25.8603 61.9375 26.3999 61.9138 26.949C61.9209 27.3252 61.8331 27.697 61.6585 28.029C61.484 28.361 61.2286 28.6422 60.9166 28.846C60.1164 29.3853 59.1686 29.6547 58.2084 29.6156C57.3548 29.6362 56.5074 29.4652 55.7267 29.1148C54.9461 28.7643 54.2515 28.2431 53.693 27.5886C53.5871 27.4721 53.4585 27.3792 53.3154 27.3157C53.1723 27.2521 53.0178 27.2193 52.8616 27.2193C52.7053 27.2193 52.5508 27.2521 52.4077 27.3157C52.2646 27.3792 52.136 27.4721 52.0301 27.5886C51.8091 27.8112 51.6834 28.1129 51.6799 28.4287C51.6793 28.6005 51.7166 28.7703 51.7893 28.9255C51.8619 29.0807 51.968 29.2175 52.0996 29.3257C52.8984 30.1476 53.8401 30.8127 54.8773 31.2877C55.9254 31.7255 57.0509 31.9413 58.1843 31.9218C59.2577 31.9397 60.3221 31.7215 61.3042 31.2822C62.1758 30.8981 62.9307 30.2854 63.4911 29.5072C64.0181 28.7627 64.2989 27.8681 64.2931 26.9518C64.2931 25.7702 64.0258 24.7838 63.5151 24.0494C63.0199 23.3183 62.3492 22.727 61.5662 22.3313Z" fill="#225B76"/>
<path d="M88.1052 13.6053C87.9154 13.4154 87.6651 13.3002 87.3991 13.2803C87.1331 13.2605 86.8688 13.3372 86.6536 13.4969C86.477 13.6277 86.3317 13.7973 86.2285 13.9928L80.74 27.5425L75.1846 14.0985C75.1066 13.8603 74.9562 13.6534 74.755 13.5073C74.5537 13.3613 74.312 13.2836 74.0644 13.2855C73.7789 13.2856 73.5039 13.395 73.2945 13.5917C73.1778 13.6962 73.0851 13.8254 73.0227 13.97C72.9604 14.1146 72.93 14.2713 72.9336 14.4291C72.9275 14.6227 72.964 14.8153 73.0405 14.9928L79.6038 30.9218C79.6923 31.1418 79.843 31.3303 80.0369 31.4638C80.228 31.5937 80.4536 31.6616 80.6837 31.6587C80.9138 31.6558 81.1376 31.5822 81.3255 31.4475C81.5205 31.3125 81.6743 31.1247 81.7692 30.9055L88.3592 14.944C88.423 14.7771 88.4565 14.5999 88.4581 14.421C88.4566 14.2717 88.4248 14.1244 88.3645 13.9883C88.3042 13.8521 88.2169 13.73 88.1079 13.6297L88.1052 13.6053Z" fill="#225B76"/>
<path d="M133.096 29.5207C132.883 29.3692 132.734 29.1418 132.679 28.8839C132.531 28.2081 132.466 27.5163 132.487 26.8244C132.494 25.8669 132.22 24.9288 131.698 24.1307C131.387 23.6691 130.992 23.2718 130.535 22.96C131.153 22.6016 131.681 22.1048 132.08 21.5075C132.683 20.6088 132.997 19.5428 132.979 18.4561C132.991 17.5305 132.754 16.619 132.294 15.8193C131.838 15.0416 131.182 14.4045 130.396 13.9765C129.562 13.5276 128.63 13.2993 127.685 13.3126H121.026C120.873 13.31 120.722 13.3386 120.581 13.3965C120.44 13.4545 120.312 13.5407 120.204 13.6499C120.097 13.7592 120.012 13.8893 119.955 14.0325C119.898 14.1757 119.871 14.329 119.873 14.4833V30.4719C119.871 30.6353 119.904 30.7971 119.972 30.9454C120.039 31.0937 120.139 31.2246 120.264 31.3283C120.503 31.5365 120.809 31.6484 121.125 31.6427C121.277 31.6463 121.429 31.6173 121.57 31.5575C121.711 31.4977 121.838 31.4086 121.943 31.2958C122.146 31.0755 122.257 30.7842 122.253 30.4828V24.174H127.316C128.049 24.1514 128.77 24.3732 129.367 24.8054C129.901 25.193 130.169 25.9084 130.169 26.9273C130.169 28.3203 130.319 29.3202 130.629 29.9815C130.891 30.5999 131.338 31.1193 131.907 31.4665C132.09 31.5687 132.297 31.6223 132.507 31.6223C132.716 31.6223 132.923 31.5687 133.107 31.4665C133.291 31.3592 133.441 31.2026 133.543 31.0139C133.614 30.8875 133.659 30.7478 133.675 30.6033C133.692 30.4588 133.68 30.3124 133.639 30.1729C133.599 30.0333 133.531 29.9033 133.44 29.7908C133.349 29.6784 133.237 29.5856 133.11 29.518L133.096 29.5207ZM130.179 20.2609C129.935 20.7428 129.574 21.1547 129.132 21.4587C128.716 21.7422 128.237 21.9155 127.739 21.9627H122.253V15.6269H127.56C127.96 15.6062 128.361 15.6676 128.737 15.8073C129.114 15.9469 129.459 16.1621 129.752 16.4399C130.024 16.706 130.238 17.0271 130.379 17.3824C130.521 17.7376 130.588 18.1191 130.575 18.5021C130.588 19.1124 130.452 19.7165 130.179 20.2609Z" fill="#225B76"/>
<path d="M104.512 14.0144C104.423 13.7952 104.274 13.6069 104.082 13.4725C103.89 13.3431 103.664 13.2754 103.433 13.2783C103.203 13.2812 102.979 13.3545 102.79 13.4887C102.595 13.6237 102.441 13.8115 102.346 14.0307L95.7699 30.0085C95.7059 30.1753 95.6724 30.3525 95.671 30.5315C95.6725 30.6808 95.7043 30.8281 95.7646 30.9642C95.8249 31.1004 95.9122 31.2225 96.0212 31.3228C96.2113 31.5122 96.4616 31.6271 96.7274 31.6469C96.9932 31.6668 97.2574 31.5903 97.4728 31.4312C97.649 31.2991 97.7949 31.1299 97.9006 30.9353L103.386 17.3856L108.944 30.8486C109.023 31.0863 109.174 31.2928 109.375 31.4387C109.576 31.5847 109.817 31.6626 110.065 31.6616C110.35 31.6614 110.625 31.5521 110.835 31.3554C110.951 31.2508 111.044 31.1217 111.106 30.9771C111.169 30.8325 111.199 30.6758 111.196 30.518C111.202 30.3244 111.165 30.1318 111.089 29.9543L104.512 14.0144Z" fill="#225B76"/>
<path d="M156.892 29.9435L150.329 14.0145C150.241 13.7953 150.091 13.6069 149.899 13.4725C149.707 13.3438 149.481 13.2766 149.251 13.2795C149.02 13.2824 148.796 13.3553 148.607 13.4887C148.412 13.6231 148.259 13.8112 148.166 14.0307L141.574 29.9923C141.511 30.1595 141.477 30.3365 141.475 30.5153C141.476 30.6645 141.508 30.8118 141.568 30.948C141.629 31.0842 141.716 31.2062 141.825 31.3066C142.015 31.4967 142.266 31.612 142.532 31.6318C142.799 31.6517 143.064 31.5748 143.279 31.415C143.455 31.2828 143.6 31.1136 143.704 30.9191L149.19 17.3694L154.748 30.8324C154.827 31.0702 154.978 31.2768 155.18 31.4228C155.382 31.5687 155.623 31.6466 155.871 31.6453C156.156 31.6451 156.43 31.5357 156.638 31.3391C156.755 31.2346 156.848 31.1055 156.91 30.9609C156.972 30.8162 157.003 30.6595 156.999 30.5017C157.006 30.3098 156.969 30.1189 156.892 29.9435Z" fill="#225B76"/>
<path d="M1.981 22.4804C1.96496 22.1516 1.95694 21.8209 1.95694 21.4885C1.95694 21.1561 1.96496 20.8255 1.981 20.4967C2.22181 15.7166 4.18751 11.193 7.50422 7.78635C10.8209 4.37967 15.2572 2.32758 19.9693 2.02042C24.6813 1.71325 29.3404 3.17243 33.0603 6.12043C36.7801 9.06842 39.3012 13.2995 40.1441 18.009C40.1453 18.0159 40.149 18.0222 40.1544 18.0266C40.1597 18.0311 40.1665 18.0335 40.1735 18.0334H42.101C42.1056 18.033 42.11 18.0318 42.1141 18.0297C42.1182 18.0276 42.1219 18.0247 42.1248 18.0211C42.1278 18.0176 42.1301 18.0136 42.1315 18.0091C42.1329 18.0047 42.1335 18 42.1331 17.9954C41.2657 12.6709 38.4544 7.87186 34.2577 4.55133C30.0609 1.23079 24.7856 -0.36833 19.4794 0.0715869C14.1732 0.511504 9.22437 2.95827 5.61565 6.92593C2.00693 10.8936 0.00234671 16.0919 0 21.4885C0 21.8218 -2.13843e-07 22.1525 0.0240606 22.4804H1.981Z" fill="#225B76"/>
<path d="M42.3978 20.4967H40.4301C40.4462 20.8273 40.4569 21.1579 40.4569 21.4885C40.4569 21.8191 40.4569 22.1524 40.4301 22.4803C40.1862 27.2705 38.2127 31.8024 34.8855 35.2131C31.5583 38.6237 27.1098 40.6748 22.3872 40.9757C22.3827 40.9761 22.3781 40.9755 22.3737 40.9741C22.3693 40.9726 22.3653 40.9703 22.3618 40.9673C22.3584 40.9643 22.3555 40.9606 22.3534 40.9565C22.3514 40.9523 22.3501 40.9478 22.3498 40.9432V37.0138C22.3503 37.0057 22.3535 36.9982 22.3589 36.9923C22.3642 36.9863 22.3714 36.9825 22.3792 36.9812C26.0592 36.6923 29.5129 35.0676 32.1063 32.4054C34.6997 29.7431 36.2589 26.2221 36.4975 22.4885C36.5189 22.1606 36.5457 21.8327 36.5457 21.4966C36.5457 21.1606 36.5216 20.8354 36.4975 20.5048H28.0602C28.0517 20.5048 28.0436 20.5013 28.0375 20.4953C28.0315 20.4892 28.0281 20.4809 28.0281 20.4723V18.8815C28.0281 15.2719 25.3547 12.1067 21.7991 11.879C20.891 11.821 19.9808 11.952 19.1245 12.264C18.2683 12.576 17.4841 13.0625 16.8204 13.6934C16.1566 14.3243 15.6274 15.0863 15.2652 15.9324C14.903 16.7786 14.7156 17.6909 14.7145 18.6132V20.4723C14.7145 20.4809 14.7111 20.4892 14.7051 20.4953C14.6991 20.5013 14.6909 20.5048 14.6824 20.5048H8.178C8.17355 20.5048 8.16915 20.5039 8.16507 20.5021C8.16099 20.5003 8.15733 20.4976 8.15431 20.4943C8.1513 20.491 8.14899 20.4871 8.14755 20.4828C8.1461 20.4786 8.14555 20.474 8.14592 20.4695C8.38386 17.3476 9.70252 14.4114 11.869 12.1794C14.0355 9.94735 16.9104 8.56323 19.986 8.27144C23.0616 7.97965 26.14 8.79896 28.6775 10.5847C31.2149 12.3704 33.0482 15.0076 33.8535 18.0306C33.8553 18.037 33.8592 18.0427 33.8645 18.0466C33.8699 18.0505 33.8763 18.0526 33.8829 18.0523H36.1099C36.1149 18.0525 36.1198 18.0514 36.1243 18.0493C36.1289 18.0472 36.1328 18.044 36.136 18.0401C36.1391 18.0362 36.1412 18.0315 36.1423 18.0266C36.1433 18.0217 36.1432 18.0165 36.142 18.0116C35.3155 14.3782 33.2265 11.1676 30.2569 8.96689C27.2874 6.76618 23.6356 5.72235 19.9693 6.02624C16.303 6.33013 12.8671 7.96145 10.2896 10.6219C7.71222 13.2824 6.16553 16.7943 5.93233 20.5156C5.91094 20.8462 5.88153 21.1742 5.88153 21.5075C5.88153 21.8408 5.90826 22.1714 5.93233 22.4993H14.6824C14.6909 22.4993 14.6991 22.5027 14.7051 22.5088C14.7111 22.5149 14.7145 22.5232 14.7145 22.5318V24.3529C14.7221 25.9632 15.2972 27.5178 16.3359 28.7362C17.3747 29.9546 18.8087 30.7567 20.3795 30.9977C20.3866 30.9989 20.3931 31.0025 20.398 31.0079C20.4028 31.0133 20.4057 31.0202 20.4062 31.0275V34.7157C20.4062 34.7251 20.4026 34.734 20.396 34.7406C20.3895 34.7472 20.3807 34.751 20.3715 34.751C17.6468 34.5654 15.0469 33.5233 12.9338 31.7699C10.8207 30.0165 9.29939 27.6389 8.58169 24.9681C8.57999 24.9614 8.57622 24.9554 8.57093 24.951C8.56564 24.9466 8.5591 24.944 8.55228 24.9437H6.31462C6.30964 24.9435 6.30469 24.9445 6.30017 24.9466C6.29564 24.9488 6.29166 24.9519 6.28855 24.9559C6.28544 24.9598 6.28327 24.9644 6.28223 24.9694C6.28119 24.9743 6.2813 24.9794 6.28254 24.9843C7.03289 28.2604 8.81069 31.2016 11.3494 33.367C13.8881 35.5324 17.0508 36.8053 20.3634 36.9948C20.3713 36.996 20.3784 36.9999 20.3838 37.0058C20.3891 37.0117 20.3923 37.0193 20.3929 37.0273V40.935C20.3929 40.9395 20.392 40.944 20.3902 40.9481C20.3884 40.9523 20.3858 40.956 20.3825 40.959C20.3793 40.9621 20.3754 40.9644 20.3712 40.9659C20.367 40.9674 20.3625 40.9679 20.3581 40.9675C16.0053 40.7672 11.8479 39.0772 8.56468 36.1734C5.28143 33.2695 3.06616 29.3233 2.28043 24.9789C2.27916 24.9712 2.27522 24.9643 2.26934 24.9593C2.26346 24.9544 2.25601 24.9517 2.24835 24.9518H0.328838C0.323857 24.9516 0.318907 24.9527 0.314381 24.9548C0.309855 24.9569 0.305877 24.96 0.302764 24.964C0.299651 24.9679 0.297487 24.9726 0.296444 24.9775C0.295401 24.9824 0.295508 24.9876 0.296757 24.9925C1.09447 29.8753 3.52806 34.3303 7.18755 37.6069C10.847 40.8835 15.5088 42.7814 20.3875 42.981C20.6548 42.981 20.9222 43 21.2056 43H21.366C21.6948 43 22.021 43 22.3444 42.9729C27.7631 42.671 32.8623 40.2782 36.5954 36.2855C40.3285 32.2927 42.4123 27.0031 42.4192 21.5021C42.4245 21.1579 42.4138 20.8273 42.3978 20.4967ZM34.2813 22.5183C34.0356 25.6458 32.7076 28.5848 30.5318 30.8161C28.3559 33.0475 25.4722 34.4277 22.3899 34.713C22.3853 34.7134 22.3807 34.7128 22.3764 34.7114C22.372 34.71 22.368 34.7077 22.3645 34.7046C22.361 34.7016 22.3582 34.6979 22.3561 34.6938C22.354 34.6897 22.3528 34.6851 22.3525 34.6805V31.0139C22.3534 31.0068 22.3564 31.0001 22.3612 30.9948C22.366 30.9895 22.3723 30.9857 22.3792 30.9841C23.9507 30.7397 25.3841 29.9336 26.4206 28.7115C27.457 27.4895 28.0282 25.932 28.0308 24.3204V22.4993C28.0314 22.4909 28.035 22.483 28.0409 22.477C28.0468 22.471 28.0546 22.4674 28.0629 22.4668H34.2492C34.2553 22.4665 34.2613 22.468 34.2667 22.4708C34.272 22.4737 34.2766 22.478 34.2798 22.4832C34.2831 22.4884 34.2849 22.4944 34.2852 22.5005C34.2854 22.5067 34.2841 22.5128 34.2813 22.5183ZM16.6741 18.6051C16.6746 17.929 16.8169 17.2607 17.0916 16.6445C17.3663 16.0284 17.7671 15.4785 18.2674 15.0313C18.7678 14.5841 19.3562 14.2499 19.9936 14.0507C20.631 13.8516 21.303 13.7921 21.9648 13.8763C24.3495 14.1717 26.0712 16.3586 26.0712 18.7948V20.4614C26.0712 20.4701 26.0678 20.4783 26.0618 20.4844C26.0558 20.4905 26.0476 20.494 26.0391 20.494H16.7035C16.695 20.494 16.6869 20.4905 16.6808 20.4844C16.6748 20.4783 16.6715 20.4701 16.6715 20.4614L16.6741 18.6051ZM16.6741 24.1415V22.5156C16.6747 22.5071 16.6783 22.4992 16.6842 22.4933C16.6901 22.4873 16.6979 22.4837 16.7062 22.483H26.0418C26.0503 22.483 26.0585 22.4865 26.0645 22.4926C26.0705 22.4987 26.0739 22.5069 26.0739 22.5156V24.3366C26.0715 25.0119 25.9278 25.6789 25.6521 26.2937C25.3764 26.9084 24.9751 27.4568 24.4747 27.9025C23.9743 28.3483 23.3862 28.6813 22.7494 28.8794C22.1125 29.0775 21.4414 29.1364 20.7805 29.0519C18.3931 28.7647 16.6715 26.5778 16.6715 24.1415H16.6741Z" fill="#225B76"/>
</svg>
